<?xml version="1.0" encoding="utf-8"?>
<!-- Generator: Adobe Illustrator 14.0.0, SVG Export Plug-In . SVG Version: 6.00 Build 43363)  -->
<!DOCTYPE svg PUBLIC "-//W3C//DTD SVG 1.1//EN" "http://www.w3.org/Graphics/SVG/1.1/DTD/svg11.dtd">
<svg version="1.1" id="图层_1" xmlns="http://www.w3.org/2000/svg" xmlns:xlink="http://www.w3.org/1999/xlink" x="0px" y="0px"
	 width="33px" height="32px" viewBox="0 0 33 32" enable-background="new 0 0 33 32" xml:space="preserve">
<linearGradient id="SVGID_1_" gradientUnits="userSpaceOnUse" x1="16.4998" y1="30.5078" x2="16.4998" y2="1.1045">
	<stop  offset="0" style="stop-color:#7468F3"/>
	<stop  offset="1" style="stop-color:#AB3AFF"/>
</linearGradient>
<circle fill="url(#SVGID_1_)" stroke="#000000" cx="16.5" cy="15.807" r="14.701"/>
<g>
	<path fill="#FFFFFF" d="M26.097,14.312c0.042,1.267-0.035,2.695-0.494,3.333c-0.28,0.398-0.527,1.131-0.798,1.887
		c-0.485-0.051-0.791-0.202-0.791-0.202c-1.326,2.906-4.464,1.682-4.464,1.682c-0.213,0.979-1.59,1.684-4.251,1.684
		c-1.998,0-5.144-1.912-6.571-2.848c-0.434-0.758-0.724-1.513-0.918-2.236l0.187-0.05c0,0,0.076-3.769,3.104-3.742
		c3.026,0.034,3.876,2.458,6.036,1.87c2.16-0.595,2.338-1.674,3.436-1.836c1.104-0.17,1.955,0.689,2.822,0l0.867-0.85L25,11.981
		C25,11.981,26.062,13.044,26.097,14.312z"/>
	<linearGradient id="SVGID_2_" gradientUnits="userSpaceOnUse" x1="16.3342" y1="17.6104" x2="16.3342" y2="3.5474">
		<stop  offset="0" style="stop-color:#FFA927"/>
		<stop  offset="1" style="stop-color:#FFD750"/>
	</linearGradient>
	<path fill="url(#SVGID_2_)" d="M23.971,10.46l1.208,1.36L25,11.981l-0.739,1.021l-0.867,0.85c-0.867,0.689-1.718-0.17-2.822,0
		c-1.098,0.162-1.275,1.241-3.436,1.836c-2.159,0.588-3.009-1.836-6.036-1.87c-3.028-0.026-3.104,3.742-3.104,3.742l-0.187,0.05
		c-0.868-3.231,0.297-5.875,0.297-5.875c-0.357-1.241,0-4.506,0-4.506s0.561-3.613,1.947-3.681c1.377-0.069,3.4,2.976,4.99,2.976
		c1.599,0,3.121,0.034,3.121,0.034s2.236-2.44,3.332-2.262c1.098,0.17,0.952,1.522,0.952,2.933
		C22.449,8.648,23.018,9.677,23.971,10.46z M12.375,8.437c0,0-0.128-0.145-0.943-0.953c-0.808-0.816-1.377-2.482-1.377-2.482
		c-0.604,0.884,0.178,4.565,0.178,4.565C10.589,8.615,12.375,8.437,12.375,8.437z"/>
	<path fill="#F9EDE4" d="M24.805,19.531c-0.171,0.468-0.341,0.944-0.545,1.344c-0.535,1.062-2.27,3.571-5.85,4.072
		c-3.571,0.494-6.589-0.288-9.386-4.607c-0.103-0.161-0.205-0.332-0.297-0.493c1.428,0.936,4.574,2.848,6.571,2.848
		c2.662,0,4.039-0.705,4.251-1.684c0,0,3.138,1.225,4.464-1.682C24.014,19.329,24.32,19.48,24.805,19.531z"/>
</g>
<g>
	<path d="M3.084,17.522l2.977-0.653l0.289,1.316c0.099,0.448,0.004,0.813-0.282,1.094c-0.209,0.205-0.5,0.349-0.87,0.43
		c-0.401,0.088-0.758,0.079-1.071-0.025c-0.409-0.137-0.663-0.427-0.761-0.87L3.084,17.522z M5.681,17.593L3.732,18.02l0.134,0.606
		c0.05,0.232,0.194,0.385,0.43,0.458c0.199,0.062,0.438,0.061,0.718,0c0.385-0.085,0.636-0.224,0.75-0.417
		c0.074-0.126,0.09-0.285,0.047-0.477L5.681,17.593z"/>
	<path d="M5.774,21.272c0.361-0.243,0.707-0.359,1.036-0.348c0.257,0.008,0.498,0.094,0.72,0.258
		c0.154,0.111,0.285,0.248,0.395,0.411c0.108,0.159,0.184,0.332,0.231,0.516c0.067,0.269,0.056,0.524-0.033,0.766
		c-0.114,0.313-0.351,0.59-0.71,0.831c-0.361,0.244-0.707,0.359-1.035,0.349c-0.258-0.008-0.499-0.094-0.721-0.258
		c-0.153-0.112-0.285-0.249-0.395-0.411c-0.107-0.16-0.184-0.332-0.23-0.517c-0.067-0.269-0.056-0.523,0.034-0.765
		C5.179,21.792,5.415,21.515,5.774,21.272z M6.131,21.802c-0.319,0.215-0.501,0.452-0.547,0.713
		c-0.037,0.199,0.005,0.389,0.126,0.569c0.121,0.179,0.281,0.29,0.48,0.333c0.259,0.056,0.548-0.024,0.867-0.24
		c0.319-0.214,0.502-0.452,0.548-0.712c0.037-0.199-0.006-0.389-0.128-0.57c-0.12-0.178-0.281-0.29-0.479-0.333
		C6.738,21.507,6.449,21.587,6.131,21.802z"/>
	<path d="M9.719,26.137l0.287-0.428l1.058,0.713l-0.918,1.365l-0.352-0.238l0.16-0.353c-0.179,0.05-0.327,0.072-0.439,0.067
		c-0.204-0.007-0.406-0.078-0.608-0.215c-0.327-0.22-0.524-0.511-0.591-0.873c-0.074-0.397,0.032-0.809,0.317-1.234
		c0.254-0.375,0.561-0.618,0.92-0.727c0.409-0.124,0.814-0.051,1.219,0.222c0.353,0.237,0.569,0.524,0.648,0.864
		c0.066,0.283,0.029,0.526-0.109,0.732l-0.529-0.355c0.048-0.072,0.058-0.184,0.028-0.332c-0.038-0.191-0.141-0.343-0.304-0.453
		c-0.207-0.14-0.422-0.183-0.646-0.128c-0.258,0.062-0.487,0.244-0.691,0.547c-0.213,0.316-0.292,0.601-0.233,0.851
		c0.045,0.2,0.173,0.372,0.385,0.515c0.11,0.075,0.232,0.115,0.364,0.122c0.22,0.012,0.429-0.077,0.625-0.266L9.719,26.137z"/>
	<path d="M15.307,26.252l-0.122,0.526l-1.578-0.361l-0.143,0.622l1.451,0.332l-0.121,0.525l-1.45-0.332l-0.176,0.771l1.649,0.377
		l-0.12,0.526l-2.259-0.516l0.68-2.972L15.307,26.252z"/>
	<path d="M19.375,26.99l-0.632,0.082c-0.062-0.144-0.128-0.246-0.199-0.309c-0.131-0.114-0.312-0.157-0.539-0.128
		c-0.194,0.025-0.349,0.114-0.462,0.27c-0.151,0.205-0.202,0.499-0.152,0.884c0.039,0.298,0.127,0.529,0.267,0.697
		c0.159,0.19,0.364,0.27,0.618,0.236c0.177-0.022,0.317-0.09,0.419-0.202c0.103-0.112,0.162-0.263,0.177-0.454l0.634-0.081
		c-0.023,0.354-0.128,0.641-0.314,0.859c-0.203,0.237-0.489,0.38-0.857,0.428c-0.419,0.055-0.768-0.036-1.046-0.271
		c-0.295-0.247-0.476-0.626-0.542-1.138c-0.066-0.51,0.016-0.926,0.246-1.247c0.215-0.299,0.529-0.475,0.939-0.528
		c0.413-0.053,0.76,0.026,1.039,0.239C19.205,26.508,19.342,26.729,19.375,26.99z"/>
	<path d="M22.82,26.195l-1.048,0.567l0.653,1.207l-0.56,0.304l-1.453-2.68l0.562-0.304l0.547,1.009l1.047-0.566l-0.547-1.01
		l0.56-0.303l1.453,2.68l-0.562,0.303L22.82,26.195z"/>
	<path d="M25.918,24.632l0.338,0.571l-0.439,0.509l-1.595-2.817l0.482-0.561l3.005,1.183l-0.451,0.524l-0.604-0.263L25.918,24.632z
		 M25.629,24.158l0.509-0.589l-1.158-0.498L25.629,24.158z"/>
	<path d="M26.176,19.853l2.774,1.264l-0.266,0.581l-2.773-1.264L26.176,19.853z"/>
	<path d="M26.965,16.666l0.085-0.59l3.017,0.435l-0.091,0.631l-2.331,0.923l2.153,0.318l-0.085,0.589l-3.017-0.434l0.094-0.666
		l2.276-0.896L26.965,16.666z"/>
</g>
<path fill="none" stroke="#000000" d="M23.975,10.456c-0.957-0.779-1.524-1.806-1.524-3.223s0.143-2.764-0.956-2.94
	c-1.098-0.177-3.329,2.267-3.329,2.267s-1.524-0.035-3.118-0.035c-1.594,0-3.614-3.047-4.996-2.976
	C8.671,3.619,8.104,7.232,8.104,7.232s-0.354,3.259,0,4.499c0,0-1.876,4.288,0.921,8.608c2.798,4.322,5.811,5.102,9.387,4.604
	c3.579-0.494,5.313-3.011,5.845-4.073c0.532-1.063,0.888-2.585,1.348-3.223c0.459-0.638,0.531-2.067,0.495-3.337
	c-0.036-1.269-1.099-2.332-1.099-2.332"/>
<path fill="#000408" d="M24.688,15.717c-0.049-0.169-0.226-0.267-0.395-0.218c-0.17,0.05-0.267,0.226-0.218,0.396
	c0.121,0.414,0.168,0.745,0.168,1.006c-0.008,0.528-0.171,0.744-0.374,0.891c-0.206,0.144-0.508,0.192-0.755,0.191
	c-0.116,0-0.217-0.01-0.288-0.019l-0.081-0.012l-0.021-0.005l-0.221-0.048l-0.118,0.19c-0.511,0.811-1.25,1.129-1.974,1.132
	c-0.636,0.002-1.247-0.262-1.611-0.67c-0.455-0.509-0.784-0.78-1.021-0.932s-0.392-0.185-0.488-0.185l-0.043,0.002
	c-0.176,0.022-0.298,0.183-0.275,0.356c0.019,0.153,0.144,0.259,0.291,0.271v0.008l0.009,0.001c0.06,0.017,0.398,0.17,1.054,0.903
	c0.507,0.562,1.279,0.882,2.086,0.883c0.351,0.002,0.71-0.063,1.055-0.196l-0.033,0.034c0,0,1.481,0.192,1.898-1.088
	c0.278-0.021,0.602-0.093,0.899-0.293c0.379-0.252,0.658-0.736,0.65-1.416C24.882,16.564,24.82,16.173,24.688,15.717z"/>
<path fill="#000500" d="M23.107,20.802c-0.727,0.771-2.106,1.316-3.534,0.008c0,0,2.816,0.846,4.198-1.407
	C23.771,19.402,23.695,20.179,23.107,20.802z"/>
<path fill="#000400" d="M21.937,17.488c0,0-2.098-0.664-2.098-2.099s4.25-1.329,3.932,0S22.74,17.852,21.937,17.488z"/>
<rect x="15.827" y="13.555" fill="#FF6F3F" width="1.196" height="0.957"/>
<path fill="#000400" d="M10.052,5c0,0,0.566,1.666,1.382,2.48s0.942,0.957,0.942,0.957s-1.792,0.177-2.146,1.133
	C10.231,9.57,9.45,5.886,10.052,5z"/>
<path fill="#FCDFAE" d="M15.269,10.234c-0.24-0.536,0.601-0.956,1.23-0.982c0.63-0.027,1.001,0.468,0.948,0.779
	C17.395,10.341,15.615,11.005,15.269,10.234z"/>
<path fill="#FCDFAE" d="M20.663,8.827c0,0-0.585,0.452-0.239,0.876s1.116,0.452,1.01-0.319C21.327,8.614,20.663,8.827,20.663,8.827z
	"/>
<rect x="3.917" y="14.068" transform="matrix(0.7071 0.7071 -0.7071 0.7071 11.6261 1.1304)" width="1.063" height="1.063"/>
<rect x="28.503" y="14.068" transform="matrix(0.7069 0.7073 -0.7073 0.7069 18.837 -16.2574)" width="1.062" height="1.062"/>
<g>
	<rect x="23.605" y="10.536" fill="#FFF8FF" width="1.946" height="2.1"/>
	<rect x="15.825" y="11.386" fill="#FFF8FF" width="1.889" height="2.099"/>
	<line stroke="#000000" x1="9.769" y1="12.077" x2="27.02" y2="9.986"/>
	<rect x="12.376" y="11.761" width="1.219" height="1.193"/>
	<rect x="13.356" y="12.357" width="1.195" height="1.446"/>
	<rect x="14.127" y="13.08" width="1.966" height="1.389"/>
	<rect x="13.356" y="11.439" width="3.442" height="1.169"/>
	<rect x="13.954" y="11.761" width="2.139" height="1.883"/>
	<rect x="15.827" y="13.511" width="1.196" height="0.957"/>
	<rect x="16.798" y="12.608" width="0.916" height="0.903"/>
	<rect x="17.714" y="11.439" width="0.797" height="0.918"/>
	<rect x="20.215" y="10.884" width="1.219" height="1.193"/>
	<rect x="21.194" y="11.481" width="1.195" height="1.446"/>
	<rect x="21.965" y="12.203" width="1.967" height="1.388"/>
	<rect x="21.194" y="10.563" width="3.441" height="1.169"/>
	<rect x="21.792" y="10.884" width="2.14" height="1.883"/>
	<rect x="23.665" y="12.635" width="1.195" height="0.956"/>
	<rect x="24.635" y="11.731" width="0.916" height="0.904"/>
	<rect x="25.552" y="10.563" width="0.797" height="0.918"/>
</g>
</svg>
