<?xml version="1.0" encoding="utf-8"?>
<!-- Generator: Adobe Illustrator 14.0.0, SVG Export Plug-In . SVG Version: 6.00 Build 43363)  -->
<!DOCTYPE svg PUBLIC "-//W3C//DTD SVG 1.1//EN" "http://www.w3.org/Graphics/SVG/1.1/DTD/svg11.dtd">
<svg version="1.1" id="图层_1" xmlns="http://www.w3.org/2000/svg" xmlns:xlink="http://www.w3.org/1999/xlink" x="0px" y="0px"
	 width="99px" height="16px" viewBox="0 0 99 16" enable-background="new 0 0 99 16" xml:space="preserve">
<g>
	<path fill="#FFFFFF" d="M1.869,2.348C1.613,1.926,1.198,1.721,0.621,1.733V1.196h3.706v0.538c-0.589,0-0.909,0.058-0.96,0.173
		C3.316,2.035,3.335,2.182,3.425,2.348l2.381,4.531l2.208-4.551C8.116,2.047,8.142,1.881,8.091,1.83
		C8.027,1.753,7.854,1.721,7.572,1.733V1.196h2.669v0.538c-0.756,0-1.229,0.199-1.421,0.595L6.228,7.667v3.764
		c0.013,0.346,0.141,0.614,0.384,0.806c0.282,0.192,0.717,0.288,1.306,0.288v0.538H3.098v-0.538c0.627,0,1.082-0.096,1.363-0.288
		c0.269-0.191,0.403-0.46,0.403-0.806V7.667L1.869,2.348z"/>
	<path fill="#FFFFFF" d="M11.7,2.348c-0.256-0.422-0.672-0.627-1.248-0.615V1.196h3.706v0.538c-0.589,0-0.909,0.058-0.96,0.173
		c-0.051,0.128-0.032,0.275,0.058,0.442l2.381,4.531l2.208-4.551c0.102-0.281,0.128-0.448,0.077-0.499
		c-0.064-0.077-0.237-0.109-0.519-0.096V1.196h2.669v0.538c-0.756,0-1.229,0.199-1.421,0.595l-2.592,5.338v3.764
		c0.013,0.346,0.141,0.614,0.384,0.806c0.282,0.192,0.717,0.288,1.306,0.288v0.538h-4.819v-0.538c0.627,0,1.082-0.096,1.363-0.288
		c0.269-0.191,0.403-0.46,0.403-0.806V7.667L11.7,2.348z"/>
	<path fill="#FFFFFF" d="M20.648,1.733V1.196h3.744c0.179,0,0.391,0,0.634,0c0.947,0,1.901,0.442,2.861,1.325
		c1.088,1.113,1.632,2.669,1.632,4.666c-0.013,2.035-0.487,3.553-1.421,4.551c-0.871,0.884-2.119,1.325-3.744,1.325h-3.706v-0.538
		c0.832-0.013,1.248-0.371,1.248-1.075V2.751C21.884,2.073,21.468,1.733,20.648,1.733z M23.356,11.449
		c0,0.718,0.333,1.075,0.999,1.075c0.909-0.013,1.773-0.447,2.592-1.306c0.742-0.832,1.113-2.176,1.113-4.032
		c-0.013-1.894-0.391-3.309-1.133-4.243c-0.679-0.807-1.523-1.21-2.535-1.21c-0.691,0.013-1.037,0.353-1.037,1.018V11.449z"/>
	<path fill="#FFFFFF" d="M34.954,5.036c0-0.013,0.006-0.019,0.019-0.019v0.019c1.293,0.013,2.253,0.429,2.88,1.248
		c0.678,0.871,1.018,1.889,1.018,3.053c0,1.075-0.352,1.959-1.056,2.65c-0.819,0.807-1.805,1.229-2.957,1.268
		c-1.114-0.026-2.042-0.403-2.784-1.134c-0.743-0.703-1.114-1.632-1.114-2.784c0-1.113,0.327-2.073,0.979-2.88
		c0.742-0.947,1.715-1.421,2.918-1.421C34.883,5.023,34.915,5.023,34.954,5.036z M33.245,6.38c-0.551,0.743-0.826,1.728-0.826,2.957
		c0.013,1.255,0.256,2.139,0.729,2.65c0.435,0.474,1.005,0.717,1.709,0.729c0.807-0.025,1.389-0.269,1.748-0.729
		c0.538-0.653,0.806-1.536,0.806-2.65c-0.013-1.126-0.313-2.093-0.902-2.899c-0.422-0.576-0.967-0.864-1.632-0.864
		C34.173,5.574,33.629,5.843,33.245,6.38z"/>
	<path fill="#FFFFFF" d="M41.943,15.06c-0.717-0.243-1.082-0.621-1.095-1.133c0-0.513,0.288-1.018,0.864-1.518
		c0.192-0.153,0.41-0.294,0.653-0.422c-0.205-0.064-0.365-0.122-0.48-0.173c-0.436-0.243-0.653-0.506-0.653-0.787
		c0.013-0.308,0.256-0.602,0.729-0.884C42.205,9.978,42.5,9.85,42.845,9.76c-0.294-0.115-0.563-0.256-0.807-0.423
		c-0.64-0.447-0.96-1.062-0.96-1.843c0.013-0.704,0.313-1.306,0.902-1.805c0.55-0.448,1.171-0.672,1.863-0.672
		c0.013-0.013,0.044-0.013,0.096,0c0-0.013,0.006-0.02,0.02-0.02v0.02c0.755,0.013,1.408,0.179,1.958,0.499
		c0.333-0.141,0.595-0.237,0.787-0.288c0.371-0.166,0.672-0.25,0.902-0.25c0.256,0.013,0.467,0.083,0.634,0.211
		c0.307,0.243,0.461,0.486,0.461,0.729c-0.013,0.23-0.064,0.41-0.154,0.538s-0.192,0.192-0.307,0.192
		c-0.282,0-0.506-0.121-0.672-0.365c-0.205-0.23-0.467-0.352-0.787-0.365c-0.077,0.013-0.161,0.026-0.25,0.039
		c0.538,0.474,0.807,1.043,0.807,1.709c-0.013,0.666-0.352,1.216-1.018,1.651c-0.653,0.436-1.389,0.659-2.208,0.672
		c-0.192-0.013-0.352-0.025-0.48-0.038c-0.602,0.256-0.877,0.486-0.826,0.69c0.026,0.192,0.698,0.212,2.016,0.058
		c0.973,0,1.805,0.192,2.497,0.576c0.78,0.474,1.171,1.114,1.171,1.921c0,0.652-0.326,1.171-0.979,1.555
		c-0.64,0.384-1.696,0.582-3.168,0.596C43.332,15.321,42.531,15.226,41.943,15.06z M44.823,12.16c-0.653,0-1.197-0.02-1.632-0.058
		c-0.128,0.051-0.237,0.115-0.327,0.191c-0.422,0.333-0.608,0.698-0.557,1.095c-0.026,0.423,0.198,0.717,0.672,0.884
		c0.422,0.166,1.133,0.274,2.131,0.326c0.679-0.013,1.216-0.135,1.613-0.365c0.435-0.256,0.653-0.544,0.653-0.864
		c-0.013-0.307-0.199-0.582-0.557-0.825C46.385,12.288,45.719,12.16,44.823,12.16z M42.538,6.784
		c0.013,0.845,0.198,1.504,0.557,1.978c0.384,0.409,0.813,0.633,1.287,0.672c0.346-0.039,0.659-0.141,0.941-0.308
		c0.371-0.256,0.557-0.544,0.557-0.864c0-0.793-0.294-1.478-0.883-2.054c-0.397-0.384-0.845-0.576-1.344-0.576
		c-0.218,0.013-0.448,0.115-0.691,0.307C42.679,6.182,42.538,6.464,42.538,6.784z"/>
	<path fill="#FFFFFF" d="M51.697,12.006c-0.679-0.716-1.018-1.638-1.018-2.765c0-1.165,0.346-2.169,1.037-3.015
		c0.665-0.806,1.657-1.209,2.977-1.209c1.202,0,2.099,0.41,2.688,1.229c0.41,0.486,0.653,1.19,0.729,2.112h0.02v0.537h-1.459h-4.532
		c0,0.103,0,0.218,0,0.346c0,0.947,0.256,1.709,0.769,2.285c0.524,0.576,1.235,0.864,2.131,0.864
		c0.563,0.013,1.102-0.135,1.613-0.442c0.474-0.307,0.941-0.773,1.401-1.401l0.442,0.153c-0.986,1.69-2.266,2.535-3.841,2.535
		C53.426,13.235,52.439,12.825,51.697,12.006z M56.651,8.358C56.6,7.411,56.44,6.72,56.172,6.284
		c-0.32-0.486-0.813-0.729-1.479-0.729c-0.846,0.013-1.485,0.372-1.921,1.075c-0.307,0.461-0.506,1.037-0.595,1.729H56.651z"/>
	<path fill="#FFFFFF" d="M60.588,4.057c0.013-0.973,0.352-1.792,1.018-2.458c0.64-0.653,1.612-0.979,2.919-0.979V0.601
		c1.202,0,2.425,0.467,3.667,1.402l-0.153,2.035h-0.365c-0.243-0.845-0.64-1.523-1.19-2.035c-0.602-0.538-1.216-0.807-1.844-0.807
		c-0.793,0-1.401,0.256-1.823,0.768c-0.41,0.512-0.615,1.14-0.615,1.882c-0.013,1.126,1.005,1.965,3.054,2.516
		C67.327,6.848,68.37,8,68.384,9.817c-0.014,0.909-0.372,1.709-1.075,2.4c-0.704,0.691-1.62,1.043-2.746,1.056
		c-1.664-0.025-2.944-0.602-3.841-1.728l-0.518-2.247l0.46-0.115c0.576,1.268,1.172,2.157,1.786,2.669
		c0.589,0.499,1.293,0.755,2.112,0.769c0.729-0.025,1.351-0.308,1.862-0.845c0.486-0.538,0.729-1.172,0.729-1.901
		c-0.013-1.306-0.928-2.157-2.745-2.554C61.848,6.656,60.575,5.567,60.588,4.057z"/>
	<path fill="#FFFFFF" d="M70.495,6.227c-0.128-0.461-0.409-0.685-0.845-0.672V5.017h2.438v0.538
		C71.897,5.567,71.782,5.6,71.743,5.65c-0.051,0.077-0.031,0.269,0.058,0.576l1.037,4.513l1.287-4.167l-0.077-0.403
		c-0.103-0.409-0.391-0.614-0.864-0.614V5.017h2.554v0.538c-0.191-0.013-0.326,0.026-0.403,0.115
		c-0.076,0.09-0.09,0.256-0.038,0.499l0.96,4.551l1.286-4.646c0.039-0.256,0.032-0.41-0.019-0.461
		c-0.064-0.051-0.16-0.07-0.288-0.058V5.017h1.594v0.538c-0.397,0-0.641,0.173-0.729,0.519l-1.901,6.932v0.058h-0.557L74.355,7.59
		l-1.633,5.357v0.02l-0.019,0.038v0.058h-0.558L70.495,6.227z"/>
	<path fill="#FFFFFF" d="M87.354,12.391c0.204-0.052,0.429-0.173,0.672-0.365l0.326,0.423c-0.537,0.499-1.101,0.768-1.689,0.807
		c-0.32-0.026-0.557-0.104-0.711-0.23c-0.204-0.167-0.307-0.403-0.307-0.711v-0.115c-0.243,0.192-0.486,0.353-0.729,0.48
		c-0.743,0.371-1.613,0.563-2.611,0.576c-0.679-0.052-1.236-0.237-1.671-0.558c-0.563-0.422-0.839-0.985-0.825-1.689
		c-0.014-0.819,0.409-1.459,1.267-1.92c0.794-0.448,1.824-0.666,3.092-0.653c0.486,0,0.979,0.084,1.479,0.25V7.11
		c-0.013-0.512-0.199-0.902-0.557-1.171c-0.346-0.256-0.775-0.377-1.287-0.365c-0.281,0.026-0.537,0.103-0.768,0.23
		c-0.295,0.167-0.416,0.467-0.365,0.902c-0.025,0.308-0.141,0.525-0.346,0.653c-0.218,0.128-0.429,0.192-0.634,0.192
		c-0.23-0.026-0.429-0.103-0.595-0.23c-0.192-0.179-0.288-0.384-0.288-0.615c0.013-0.486,0.294-0.883,0.845-1.19
		c0.589-0.346,1.313-0.512,2.17-0.499v0.019c0.922,0,1.677,0.237,2.266,0.71c0.614,0.487,0.922,1.114,0.922,1.882v4.417
		C87.009,12.236,87.124,12.352,87.354,12.391z M85.204,9.03c-1.268,0.038-2.272,0.237-3.015,0.595
		c-0.691,0.346-1.031,0.807-1.018,1.383c-0.052,0.436,0.076,0.774,0.384,1.018c0.307,0.23,0.793,0.391,1.459,0.48
		c0.614-0.052,1.178-0.198,1.689-0.442c0.358-0.217,0.673-0.447,0.941-0.69V9.088L85.204,9.03z"/>
	<path fill="#FFFFFF" d="M90.618,6.668c-0.191-0.077-0.524-0.115-0.998-0.115V6.131l2.323-1.114h0.269v1.209
		c0.884-0.819,1.729-1.222,2.535-1.209c0.985,0.013,1.811,0.41,2.477,1.19c0.64,0.717,0.96,1.747,0.96,3.091
		c-0.013,1.05-0.333,1.959-0.96,2.727c-0.691,0.807-1.543,1.21-2.554,1.21c-0.819-0.013-1.639-0.192-2.458-0.538v1.671
		c0.013,0.243,0.122,0.429,0.327,0.557c0.179,0.115,0.518,0.173,1.018,0.173v0.538h-3.726v-0.538c0.384,0,0.653-0.064,0.807-0.192
		c0.141-0.128,0.211-0.307,0.211-0.537V7.129C90.848,6.873,90.772,6.72,90.618,6.668z M92.212,11.968
		c0.742,0.486,1.408,0.736,1.997,0.749c0.679,0,1.287-0.326,1.824-0.979c0.524-0.652,0.787-1.466,0.787-2.438
		c0-1.139-0.249-1.997-0.749-2.573c-0.486-0.563-1.094-0.845-1.824-0.845c-0.614,0-1.293,0.314-2.035,0.941V11.968z"/>
</g>
</svg>
